<svg xmlns="http://www.w3.org/2000/svg" xmlns:xlink="http://www.w3.org/1999/xlink" viewBox="0 0 400 150">
  <defs>
    <linearGradient id="b" x1="-4.8" x2="404.1" y1="224.6" y2="224.6" gradientUnits="userSpaceOnUse">
      <stop offset="0" stop-color="#f0cfff"/>
      <stop offset="1" stop-color="#ffff3a"/>
    </linearGradient>
    <linearGradient id="d" x1="329.8" x2="264.6" y1="331.5" y2="7" gradientUnits="userSpaceOnUse">
      <stop offset="0" stop-color="#9cb9f6" stop-opacity=".8"/>
      <stop offset="1" stop-color="#ff4f4c" stop-opacity="0"/>
    </linearGradient>
    <linearGradient id="c" x1="189.1" x2="253.1" y1="60.3" y2="246.9" gradientUnits="userSpaceOnUse">
      <stop offset="0" stop-color="#ff5e00" stop-opacity=".4"/>
      <stop offset="1" stop-color="#bbff98" stop-opacity=".1"/>
    </linearGradient>
    <clipPath id="e">
      <path d="M0 0h300v150H0z"/>
    </clipPath>
    <path id="f" d="M49.1 108.7a41 41 0 00-15 3C20 117.7 8.6 132.4 8.6 150S20 182.4 34 188.3c11.7 4.8 26.3 4 38-3.4h20.6l19-19H65.8a22.4 22.4 0 110-31.8h46l-19-19H72a42 42 0 00-23-6.4z"/>
    <mask id="i">
      <g>
        <animateTransform attributeName="transform" attributeType="XML" dur="30s" from="0 50 50" repeatCount="indefinite" to="360 50 50" type="rotate"/>
        <path fill="#fff" d="M0 0h100v100H0z"/>
        <circle id="a" cx="50" cy="12" r="3"/>
        <use href="#a" transform="rotate(72 50 50)"/>
        <use href="#a" transform="rotate(144 50 50)"/>
        <use href="#a" transform="rotate(216 50 50)"/>
        <use href="#a" transform="rotate(288 50 50)"/>
      </g>
    </mask>
  </defs>
  <path fill="url(#b)" d="M-4.8 146.3h408.9v156.6H-4.8z" transform="translate(0 -147)"/>
  <path fill="url(#c)" d="M-4.8 146.3h408.9v156.6H-4.8z" transform="translate(0 -147)"/>
  <path fill="url(#d)" d="M-4.8 146.3h408.9v156.6H-4.8z" transform="translate(0 -147)"/>
  <path d="M189.2 120.5v8c0 1.8 1.5 3.2 3.3 3.2h15.9c1.8 0 3.2-1.4 3.2-3.3v-7.9zm8.3.7h1.7l1.3 5.8 1.2-5.8h1.7l-2.1 9.9h-1.7l-2-10zm-3 0a2.9 2.9 0 013 2.9h-1.7c0-.7-.5-1.2-1.2-1.2a1.2 1.2 0 00-.8 2l.8.4c.8 0 1.6.3 2.1.8a2.9 2.9 0 01.8 2 2.9 2.9 0 01-5.8 0h1.7c0 .7.6 1.3 1.2 1.3a1.2 1.2 0 001.2-1.2 1.2 1.2 0 00-.3-.9c-.2-.2-.5-.3-.9-.3-.7-.2-1.5-.4-2-.9a2.9 2.9 0 01-.9-2 2.9 2.9 0 012.8-2.9zm11.6 0a2.9 2.9 0 013 2.9h-1.6a1.2 1.2 0 00-1.2-1.2 1.2 1.2 0 00-1.2 1.2v4a1.2 1.2 0 002.4 0V127h-1.2v-1.7h2.9v2.9a2.9 2.9 0 01-5.8 0V124a2.9 2.9 0 012.7-2.9z"/>
  <g clip-path="url(#e)" transform="matrix(.07919 0 0 .07919 188.6 108.7)">
    <g>
      <animateTransform attributeName="transform" dur="3s" from="0 150 150" repeatCount="indefinite" to="45 150 150" type="rotate"/>
      <g id="g">
        <use width="100%" height="100%" transform="rotate(-22.5 150 150)" xlink:href="#f"/>
        <use width="100%" height="100%" transform="rotate(22.5 150 150)" xlink:href="#f"/>
      </g>
      <use width="100%" height="100%" transform="rotate(90 150 150)" xlink:href="#g"/>
      <use width="100%" height="100%" transform="rotate(157.5 150 150)" xlink:href="#f"/>
    </g>
  </g>
  <path d="M173.4 54.7l14.2 20.8-14.2 20.8H184l14-20.8-14-20.8z">
    <animateTransform attributeName="transform" dur="3s" repeatCount="indefinite" type="translate" values="0,0;0,0;0,0;0,0;0,0;0,0;0,0;0,0;-2.5,0;0,0;0;0,0;0,0;0,0;0,0"/>
  </path>
  <path d="M187.6 54.7l14.1 20.8-14.1 20.8H198l9-13.4 8.8 13.4h9.7L198 54.7z"/>
  <path d="M209.1 65.8l4.5 7.5H233v-7.5zm7.5 11.2l4.4 7.4h12V77z">
    <animateTransform attributeName="transform" dur="3s" repeatCount="indefinite" type="translate" values="0,0;0,0;0,0;0,0;0,0;0,0;0,0;0,0;2.5,0;0,0;0,0;0;0,0;0,0;0,0"/>
  </path>
  <path d="M149.4 32.6v14H166v-14zm15.4 12.8h-14.1V35.2h14zm-12.8-4l4.4-1.8v-1.4l-4.4-1.7v1.3l2.7 1.1-2.7 1v1.4z"/>
  <path d="M156.4 41.3h4.4v1.3h-4.4v-1.3z">
    <animate attributeName="fill-opacity" attributeType="XML" calcMode="discrete" dur="1.2s" repeatCount="indefinite" values="1;0"/>
  </path>
  <g transform="translate(232.1 85.2) scale(.26458)">
    <path id="h" d="M30 100C0 100 0 90 0 90V80s0 10 30 10 30-10 30-10v10s0 10-30 10"/>
    <g>
      <animateTransform attributeName="transform" dur="2s" repeatCount="indefinite" type="translate" values="0 0;0 0;0 0;0 0;0 1;0 -1;0 0"/>
      <use width="100%" height="100%" href="#h" transform="translate(0 -15)"/>
      <g>
        <animateTransform attributeName="transform" dur="2s" repeatCount="indefinite" type="translate" values="0 0;0 0;0 0;0 0;0 1;0 -1;0 0"/>
        <use width="100%" height="100%" href="#h" transform="translate(0 -30)"/>
        <path d="M30 55C0 55 0 45 0 45s0-10 30-10 30 10 30 10 0 10-30 10">
          <animateTransform attributeName="transform" dur="2s" repeatCount="indefinite" type="translate" values="0 0;0 0;0 0;0 0;0 1;0 -1;0 0"/>
        </path>
      </g>
    </g>
  </g>
  <g>
    <path d="M12.1 36.4h13.2v23.3H13l5.9 11.7h31.7c.3 0 .5-.1.5-.4V60.4c0-.3-.2-.3-.5-.3h-8.8v-6.7h9.5c.8 0 4.6.2 5.8 5 .4 1.5 1.2 6.3 1.7 7.8.6 1.7 2 5.2 6.5 5.2h23l6-19H82.8c-.4 0-.5.2-.5.6v1.7c0 4-2.3 5-4.3 5.2-1 0-3.8-.2-4.4-2.6-.9-5.1-3-7-5.9-9.4 13.5-7.8 7.2-22.6-6-22.6H14.8zm29.6.2h11.5c7 0 7 6.9 0 6.9H41.7z" mask="url(#i)" transform="translate(190.2 18.3) scale(.22179)"/>
    <g mask="url(#i)" transform="translate(190.2 18.3) scale(.22179)">
      <g>
        <animateTransform attributeName="transform" attributeType="XML" dur="30s" from="0 50 50" repeatCount="indefinite" to="360 50 50" type="rotate"/>
        <path d="M50 0c-.5 0-1 .3-1.2.7L46.2 5 45 5l-3.4-3.6a1.4 1.4 0 00-1.3-.4 1.4 1.4 0 00-1.1.9l-1.7 4.6-1.2.4-4-3A1.4 1.4 0 0030 5l-.8 4.9-1 .6-4.6-2a1.4 1.4 0 00-1.4 0c-.4.3-.6.8-.6 1.3l.2 5-1 .7-4.8-1.1a1.4 1.4 0 00-1.7 1.7l1.1 4.8a46.3 46.3 0 00-.8 1l-4.9-.2a1.4 1.4 0 00-1.4 2l2 4.5-.5 1.1L5 30a1.4 1.4 0 00-.9 2.3l2.9 4-.4 1.1L2 39.2a1.4 1.4 0 00-.5 2.4L5 44.9v1.3L.6 48.8a1.4 1.4 0 000 2.4L5 53.8 5 55l-3.6 3.4a1.4 1.4 0 00.5 2.4l4.6 1.7.4 1.2-2.9 4A1.4 1.4 0 005 70l4.8.8.6 1-2 4.5a1.4 1.4 0 001.3 2h5l.7.9-1.1 4.8a1.4 1.4 0 001.7 1.7l4.8-1.1 1 .7-.2 5a1.4 1.4 0 002 1.3l4.5-2 1.1.6.8 4.8a1.4 1.4 0 002.3 1l4-2.9 1.2.4 1.7 4.6a1.4 1.4 0 002.4.5l3.4-3.7 1.2.2 2.6 4.2a1.4 1.4 0 002.4 0l2.6-4.2 1.3-.2 3.3 3.7a1.4 1.4 0 002.4-.5l1.7-4.6 1.2-.4 4 2.9a1.4 1.4 0 002.3-1l.8-4.8 1-.6 4.6 2a1.4 1.4 0 002-1.3l-.2-5 1-.7 4.8 1.1c.5.1 1 0 1.3-.4.4-.3.5-.8.4-1.3l-1.1-4.8.8-1 4.9.2c.5 0 1-.2 1.2-.7a1.4 1.4 0 00.2-1.4l-2-4.4.5-1.1L95 70c.4-.1.9-.4 1-.9a1.4 1.4 0 00-.1-1.4l-2.9-4 .4-1.2 4.6-1.7a1.4 1.4 0 00.9-1c.1-.6 0-1-.4-1.4L95 55v-1.2l4.3-2.6a1.4 1.4 0 000-2.4L95 46.2a57 57 0 00-.1-1.3l3.6-3.3a1.4 1.4 0 00.4-1.4 1.4 1.4 0 00-1-1l-4.5-1.7a53.7 53.7 0 00-.4-1.2l2.9-4a1.4 1.4 0 00-1-2.3l-4.8-.8a39 39 0 00-.6-1l2-4.6a1.4 1.4 0 000-1.4 1.4 1.4 0 00-1.3-.6l-5 .2a38.9 38.9 0 00-.7-1l1.1-4.8a1.4 1.4 0 00-1.7-1.7l-4.8 1.1a41.5 41.5 0 00-1-.8l.2-4.9a1.4 1.4 0 00-2-1.4l-4.5 2a52 52 0 00-1.1-.5L70 4.9a1.4 1.4 0 00-2.3-.9l-4 2.9a43.8 43.8 0 00-1.2-.4L60.8 2a1.4 1.4 0 00-2.4-.5L55 5a43.3 43.3 0 00-1.2 0L51.2.6A1.4 1.4 0 0050 0zm0 13a37 37 0 0137 37 37 37 0 01-37 37 37 37 0 01-37-37 37 37 0 0137-37z"/>
        <path id="j" d="M36 6.9l12.3 11.8a2.5 2.5 0 001.7.7 2.5 2.5 0 001.7-.6l12.2-12z"/>
        <use width="100%" height="100%" href="#j" transform="rotate(72 50 50)"/>
        <use width="100%" height="100%" href="#j" transform="rotate(144 50 50)"/>
        <use width="100%" height="100%" href="#j" transform="rotate(216 50 50)"/>
        <use width="100%" height="100%" href="#j" transform="rotate(-72 50 50)"/>
      </g>
    </g>
  </g>
  <g stroke="#000">
    <g stroke-linecap="round" stroke-width="0" transform="translate(145.3 87.3) scale(.22674)">
      <g id="k" fill="none" stroke-width="2">
        <path d="M44 86l-8-14-12 40">
          <animate attributeName="d" dur="2s" repeatCount="indefinite" values="M44,86L36,72L24,112;M44,88L34,76L24,112;M44,86L36,72L24,112"/>
        </path>
        <path d="M44 86L31 72l-14 40">
          <animate attributeName="d" dur="2s" repeatCount="indefinite" values="M44,86L31,72L17,112;M44,88L29,76L17,112;M44,86L31,72L17,112"/>
        </path>
        <path d="M44 86L26 72l-16 40">
          <animate attributeName="d" dur="2s" repeatCount="indefinite" values="M44,86L26,72L10,112;M44,88L24,76L10,112;M44,86L26,72L10,112"/>
        </path>
      </g>
      <use width="100%" height="100%" transform="matrix(-1 0 0 1 100 0)" xlink:href="#k"/>
      <g>
        <animateTransform attributeName="transform" dur="2s" repeatCount="indefinite" type="translate" values="0 0;0 2;0 0"/>
        <path stroke-width="4" d="M50 25v66"/>
        <g stroke="none" transform="translate(0 86)">
          <path d="M28.3-48.5v-25L50-86l21.7 12.5v25L50-36"/>
          <rect width="22" height="10" x="39" y="-5" rx="5"/>
          <rect width="12" height="32" x="44" y="-32" rx="4"/>
        </g>
      </g>
    </g>
  </g>
  <path d="M236.2 41.2l5.7 10h-2.6l-1.6-2.7-1.5 2.7h-1.3l-.7-1.2 2.2-3.8-1.6-2.7zm2-4.1l-5.7 10-1.4-2.3 1.6-2.7h-3.1l-.7-1.1.7-1.2h4.4l1.6-2.7zm.5 8h11.5l-1.3 2.3h-3l1.5 2.7-.7 1.1h-1.3l-2.2-3.8H240zm6.7-4.4l-5.8-10h2.7l1.5 2.7 1.6-2.7h1.3l.7 1.2-2.2 3.8 1.5 2.7zm-9.2.5l5.7 10h-2.6l-1.6-2.7-1.5 2.7h-1.3l-.7-1.2 2.2-3.8-1.6-2.7zm6.7-4.4h-11.6l1.3-2.3h3.1l-1.5-2.7.7-1.1h1.3l2.2 3.8h3.1zm.4 8l5.8-10 1.3 2.3-1.5 2.7h3l.7 1.1-.6 1.2h-4.4l-1.6 2.7z"/>
</svg>
