<svg xmlns="http://www.w3.org/2000/svg" xmlns:xlink="http://www.w3.org/1999/xlink" viewBox="0 0 400 150">
 <defs>
  <linearGradient id="c" x1="-4.81" x2="404.11" y1="224.57" y2="224.57" gradientUnits="userSpaceOnUse">
   <stop offset="0" stop-color="#ddc4ff"/>
   <stop offset="1" stop-color="#ffff01"/>
  </linearGradient>
  <linearGradient id="d" x1="329.81" x2="264.6" y1="331.48" y2="7.01" gradientUnits="userSpaceOnUse">
   <stop offset="0" stop-color="#7d9ef6" stop-opacity=".84"/>
   <stop offset="1" stop-color="#ff0001" stop-opacity=".01"/>
  </linearGradient>
  <linearGradient id="b" x1="264.06" x2="393.42" y1="392.42" y2="148.67" gradientUnits="userSpaceOnUse">
   <stop offset="0" stop-color="#ff9e00" stop-opacity=".4"/>
   <stop offset="1" stop-color="#47ff00" stop-opacity=".06"/>
  </linearGradient>
  <clipPath id="e">
   <path d="M0 0h300v150H0z"/>
  </clipPath>
  <path id="f" d="M49.14 108.68a41.02 41.02 0 00-14.99 3.06C19.95 117.62 8.58 132.36 8.58 150s11.38 32.38 25.57 38.26c11.69 4.85 26.22 3.97 37.98-3.4h20.6l19-19H65.85a22.42 22.42 0 110-31.71h45.88l-19-19h-20.6a41.92 41.92 0 00-23-6.47z"/>
  <mask id="i">
   <g>
    <animateTransform attributeName="transform" attributeType="XML" dur="30s" from="0 50 50" repeatCount="indefinite" to="360 50 50" type="rotate"/>
    <path fill="#fff" d="M0 0h100v100H0z"/>
    <circle id="a" cx="50" cy="12" r="3"/>
    <use href="#a" transform="rotate(72 50 50)"/>
    <use href="#a" transform="rotate(144 50 50)"/>
    <use href="#a" transform="rotate(216 50 50)"/>
    <use href="#a" transform="rotate(288 50 50)"/>
   </g>
  </mask>
 </defs>
 <g transform="translate(0 -147)">
 <path fill="url(#b)" d="M-4.81 146.26h408.92v156.62H-4.81z"/>
 <path fill="url(#c)" d="M-4.81 146.26h408.92v156.62H-4.81z"/>
 <path fill="url(#d)" d="M-4.81 146.26h408.92v156.62H-4.81z"/>
  <g stroke-width=".26458" aria-label="Owen Shepherd">
   <path d="m38.009 227.59c3.9511 0 6.5984-2.8646 6.5984-7.1713 0-4.1092-2.5682-6.8552-6.4008-6.8552-3.8918 0-6.4798 2.8448-6.4798 7.0922 0 4.1684 2.509 6.9342 6.2823 6.9342zm0.19756-1.4224c-2.8843 0-4.8006-2.2916-4.8006-5.7489 0-3.2399 1.8373-5.413 4.603-5.413 2.9436 0 4.9191 2.2521 4.9191 5.6501 0 3.2992-1.8965 5.5118-4.7216 5.5118z"/>
   <path d="m49.645 227.45h1.5014l2.4694-7.7047 2.5682 7.7047h1.6002l3.3584-9.5222h-1.5804l-2.4892 7.8034-2.4497-7.7639h-1.778l-2.3904 7.7837-2.4892-7.8232h-1.7978z"/>
   <path d="m67.346 227.65c1.0866 0 2.2719-0.25682 3.1214-0.7112l-0.3556-1.1458c-0.73096 0.3556-1.6595 0.57291-2.4892 0.57291-2.0151 0-3.2794-1.2051-3.5165-3.2399h6.6379c0.03951-0.29634 0.07902-0.98778 0.07902-1.3631 0-2.3904-1.5804-4.0301-3.9314-4.0301-2.6472 0-4.445 2.0743-4.445 4.9982 0 3.0424 1.8768 4.9191 4.8994 4.9191zm-0.57291-8.5739c1.62 0 2.5682 1.047 2.5682 2.8646h-5.255c0.13829-1.857 1.0866-2.8646 2.6868-2.8646z"/>
   <path d="m73.49 227.45h1.5804v-7.4478c0.73096-0.57291 1.6002-0.889 2.5287-0.889 1.5409 0 2.3904 0.86924 2.3904 2.4102v5.9267h1.5804v-6.2428c0-2.1138-1.4026-3.477-3.5362-3.477-1.0866 0-2.1731 0.37536-3.0819 1.047l-0.3556-0.84949h-1.1063z"/>
   <path d="m92.929 227.65c3.0621 0 5.0574-1.5607 5.0574-3.9709 0-4.8599-7.6849-2.9238-7.6849-6.4601 0-1.4422 1.1656-2.2324 3.2597-2.2324 1.1656 0 2.4299 0.23707 3.4177 0.65193l0.49389-1.2841c-1.1656-0.51364-2.4892-0.79022-3.7931-0.79022-3.0621 0-5.0574 1.5212-5.0574 3.9116 0 4.7018 7.6652 2.9436 7.6652 6.4403 0 1.3829-1.1853 2.2719-3.2597 2.2719-1.2446 0-2.7855-0.33585-4.1289-0.889l-0.49389 1.2841c1.5212 0.69144 3.0621 1.0668 4.524 1.0668z"/>
   <path d="m100.61 227.45h1.5804v-7.3688c0.73096-0.65193 1.6002-0.96802 2.5287-0.96802 1.5409 0 2.3904 0.86924 2.3904 2.4102v5.9267h1.5804v-6.2428c0-2.1138-1.4026-3.477-3.5362-3.477-1.047 0-2.0941 0.33585-2.9633 1.0075v-5.8872h-1.5804z"/>
   <path d="m116.08 227.65c1.0866 0 2.2719-0.25682 3.1214-0.7112l-0.3556-1.1458c-0.73095 0.3556-1.6595 0.57291-2.4892 0.57291-2.0151 0-3.2794-1.2051-3.5165-3.2399h6.6379c0.0395-0.29634 0.079-0.98778 0.079-1.3631 0-2.3904-1.5804-4.0301-3.9314-4.0301-2.6472 0-4.445 2.0743-4.445 4.9982 0 3.0424 1.8768 4.9191 4.8994 4.9191zm-0.57291-8.5739c1.62 0 2.5682 1.047 2.5682 2.8646h-5.255c0.13829-1.857 1.0866-2.8646 2.6868-2.8646z"/>
   <path d="m122.23 231.74h1.5804v-5.0969c0.65193 0.65193 1.5607 1.0075 2.6077 1.0075 2.6472 0 4.4252-2.0546 4.4252-5.1364 0-2.8646-1.6397-4.7808-4.0894-4.7808-1.1261 0-2.2126 0.41487-3.0226 1.1458l-0.39511-0.94826h-1.1063zm4.1092-12.624c1.778 0 2.9238 1.4224 2.9238 3.5955 0 2.1336-1.047 3.556-2.7658 3.556-1.1656 0-2.1731-0.63218-2.6868-1.6397v-4.445c0.67168-0.67169 1.6002-1.0668 2.5287-1.0668z"/>
   <path d="m133.51 227.45h1.5804v-7.3688c0.73095-0.65193 1.6002-0.96802 2.5287-0.96802 1.5409 0 2.3904 0.86924 2.3904 2.4102v5.9267h1.5804v-6.2428c0-2.1138-1.4026-3.477-3.5362-3.477-1.047 0-2.0941 0.33585-2.9633 1.0075v-5.8872h-1.5804z"/>
   <path d="m148.98 227.65c1.0866 0 2.2719-0.25682 3.1214-0.7112l-0.3556-1.1458c-0.73096 0.3556-1.6595 0.57291-2.4892 0.57291-2.0151 0-3.2794-1.2051-3.5165-3.2399h6.6379c0.0395-0.29634 0.079-0.98778 0.079-1.3631 0-2.3904-1.5804-4.0301-3.9314-4.0301-2.6472 0-4.445 2.0743-4.445 4.9982 0 3.0424 1.8768 4.9191 4.8994 4.9191zm-0.57291-8.5739c1.62 0 2.5682 1.047 2.5682 2.8646h-5.255c0.13829-1.857 1.0866-2.8646 2.6868-2.8646z"/>
   <path d="m155.12 227.45h1.5804v-6.7959c0.61242-0.82973 1.5804-1.3236 2.6472-1.3236 0.37536 0 0.73096 0.0593 1.047 0.1778l0.39511-1.4619c-0.41487-0.13829-0.82973-0.21731-1.2644-0.21731-1.1458 0-2.2126 0.55315-2.9238 1.4817l-0.1778-1.3829h-1.3039z"/>
   <path d="m166.2 227.65c1.1458 0 2.1138-0.41487 2.8448-1.1261l0.39511 0.92851h1.1063v-14.599h-1.5804v5.7291c-0.67169-0.55316-1.5409-0.84949-2.5485-0.84949-2.6868 0-4.4648 2.0151-4.4648 5.0377 0 2.9238 1.699 4.8796 4.2474 4.8796zm-2.667-5.0574c0-2.0941 1.1063-3.477 2.9436-3.477 1.0668 0 1.9163 0.43462 2.4892 1.1853v4.8796c-0.5334 0.69144-1.3434 1.0866-2.3114 1.0866-1.8965 0-3.1214-1.4817-3.1214-3.6745z"/>
  </g>
 </g>

 <path d="M303.88 117.96v7.92a3.23 3.23 0 003.29 3.29H323a3.23 3.23 0 003.3-3.29v-7.92zm8.32.64h1.7l1.2 5.8 1.2-5.8h1.7l-2.05 9.91h-1.7l-2.05-9.91zm-3.04.07a2.9 2.9 0 013.04 2.83h-1.7c0-.66-.54-1.2-1.2-1.2a1.2 1.2 0 00-.86 2.05c.22.22.4.28.86.36.8.08 1.52.32 2.05.85a2.9 2.9 0 01.85 2.05 2.9 2.9 0 01-5.8 0h1.7c0 .66.53 1.2 1.2 1.2a1.2 1.2 0 001.2-1.2 1.2 1.2 0 00-.35-.85c-.22-.22-.53-.3-.86-.35a3.59 3.59 0 01-2.05-.85 2.9 2.9 0 01-.85-2.06 2.9 2.9 0 012.77-2.83zm11.62 0a2.9 2.9 0 013.04 2.83h-1.7a1.2 1.2 0 00-1.2-1.2 1.2 1.2 0 00-1.21 1.2v4.11a1.2 1.2 0 002.4 0v-1.2h-1.2v-1.7h2.9v2.9a2.9 2.9 0 01-5.8 0v-4.1a2.9 2.9 0 012.77-2.84z"/>
 <g clip-path="url(#e)" transform="matrix(.07919 0 0 .07919 303.2 106.1)">
  <g>
   <animateTransform attributeName="transform" dur="3s" from="0 150 150" repeatCount="indefinite" to="45 150 150" type="rotate"/>
   <g id="g">
    <use width="100%" height="100%" transform="rotate(-22.5 150 150)" xlink:href="#f"/>
    <use width="100%" height="100%" transform="rotate(22.5 150 150)" xlink:href="#f"/>
   </g>
   <use width="100%" height="100%" transform="rotate(90 150 150)" xlink:href="#g"/>
   <use width="100%" height="100%" transform="rotate(157.5 150 150)" xlink:href="#f"/>
  </g>
 </g>
 <path d="M288.1 52.12l14.13 20.82-14.13 20.83h10.41l14.13-20.83-14.13-20.82z">
  <animateTransform attributeName="transform" dur="3s" repeatCount="indefinite" type="translate" values="0,0;0,0;0,0;0,0;0,0;0,0;0,0;0,0;-2.5,0;0,0;0;0,0;0,0;0,0;0,0"/>
 </path>
 <path d="M302.23 52.12l14.13 20.82-14.13 20.83h10.41l8.93-13.39 8.92 13.39h9.67l-27.52-41.65z"/>
 <path d="M323.8 63.28l4.46 7.43h19.34v-7.43zm7.43 11.15l4.47 7.44h11.9v-7.44z">
  <animateTransform attributeName="transform" dur="3s" repeatCount="indefinite" type="translate" values="0,0;0,0;0,0;0,0;0,0;0,0;0,0;0,0;2.5,0;0,0;0,0;0;0,0;0,0;0,0"/>
 </path>
 <path d="M264.07 30.04V44.1h16.61V30.04zm15.34 12.78h-14.06V32.6h14.06zm-12.76-4.03l4.4-1.75v-1.4l-4.4-1.74v1.39l2.65 1.05-2.65 1.05v1.4z"/>
 <path d="M271.05 38.79h4.4v1.29h-4.4v-1.3z">
  <animate attributeName="fill-opacity" attributeType="XML" calcMode="discrete" dur="1.2s" repeatCount="indefinite" values="1;0"/>
 </path>
 <g transform="translate(346.76 82.65) scale(.26458)">
  <path id="h" d="M30 100C0 100 0 90 0 90V80s0 10 30 10 30-10 30-10v10s0 10-30 10"/>
  <g>
   <animateTransform attributeName="transform" dur="2s" repeatCount="indefinite" type="translate" values="0 0;0 0;0 0;0 0;0 1;0 -1;0 0"/>
   <use width="100%" height="100%" href="#h" transform="translate(0 -15)"/>
   <g>
    <animateTransform attributeName="transform" dur="2s" repeatCount="indefinite" type="translate" values="0 0;0 0;0 0;0 0;0 1;0 -1;0 0"/>
    <use width="100%" height="100%" href="#h" transform="translate(0 -30)"/>
    <path d="M30 55C0 55 0 45 0 45s0-10 30-10 30 10 30 10 0 10-30 10">
     <animateTransform attributeName="transform" dur="2s" repeatCount="indefinite" type="translate" values="0 0;0 0;0 0;0 0;0 1;0 -1;0 0"/>
    </path>
   </g>
  </g>
 </g>
 <g>
  <path d="M12.13 36.35H25.3V59.7H12.86l5.91 11.66h31.69c.34 0 .56-.06.56-.37V60.42c0-.3-.22-.36-.56-.36h-8.73v-6.7h9.44c.86 0 4.6.25 5.8 5.04.38 1.47 1.2 6.26 1.77 7.8.56 1.71 1.95 5.2 6.48 5.19l23.02-.04 6.05-18.97h-11.6c-.38 0-.53.24-.53.61v1.72c0 4.05-2.28 4.93-4.29 5.16-.95.1-3.8-.2-4.33-2.59-.9-5.08-2.95-7.05-5.9-9.39 13.44-7.76 7.2-22.6-6.09-22.6H14.8zm29.6.25h11.43c7 0 7.05 6.87 0 6.87H41.73z" mask="url(#i)" transform="translate(304.81 15.7) scale(.22179)"/>
  <g mask="url(#i)" transform="translate(304.81 15.7) scale(.22179)">
   <g>
    <animateTransform attributeName="transform" attributeType="XML" dur="30s" from="0 50 50" repeatCount="indefinite" to="360 50 50" type="rotate"/>
    <path d="M50 .03c-.5 0-.96.26-1.22.68l-2.6 4.2c-.4.03-.82.07-1.22.12l-3.37-3.61a1.45 1.45 0 00-1.33-.43 1.44 1.44 0 00-1.07.9l-1.73 4.62c-.4.11-.8.23-1.19.36l-3.99-2.88a1.45 1.45 0 00-2.27.94l-.79 4.86-1.1.59-4.47-2.04a1.44 1.44 0 00-1.4.1c-.42.29-.66.76-.64 1.26l.17 4.93-.95.78-4.8-1.13A1.44 1.44 0 0014.29 16l1.13 4.8a46.34 46.34 0 00-.78.95l-4.93-.17a1.44 1.44 0 00-1.36 2.04l2.04 4.49c-.2.36-.4.72-.58 1.09L4.95 30A1.45 1.45 0 004 32.27l2.87 3.99-.36 1.19-4.6 1.72a1.44 1.44 0 00-.48 2.41l3.6 3.36-.12 1.23-4.2 2.6a1.44 1.44 0 000 2.45l4.2 2.6.12 1.22-3.6 3.36a1.44 1.44 0 00.47 2.4l4.61 1.73.36 1.19-2.87 4a1.44 1.44 0 00.94 2.26l4.86.8.58 1.08-2.04 4.48A1.44 1.44 0 009.7 78.4l4.93-.18.78.95-1.13 4.8a1.44 1.44 0 001.74 1.74l4.8-1.13.95.77-.17 4.94a1.44 1.44 0 002.04 1.36l4.48-2.04c.36.2.72.4 1.09.58l.79 4.86a1.44 1.44 0 002.27.94l4-2.87 1.18.36 1.73 4.6a1.44 1.44 0 002.4.48l3.37-3.6 1.22.12 2.6 4.2a1.45 1.45 0 002.45 0l2.6-4.2 1.22-.12 3.36 3.6a1.44 1.44 0 002.4-.48l1.73-4.6 1.2-.36 3.99 2.87a1.44 1.44 0 002.26-.94l.8-4.86 1.09-.58 4.48 2.04a1.44 1.44 0 002.04-1.36l-.17-4.94c.32-.25.63-.5.94-.77l4.8 1.13a1.44 1.44 0 001.74-1.73l-1.13-4.81.78-.95 4.93.18c.5.02.97-.23 1.25-.64a1.44 1.44 0 00.11-1.4l-2.04-4.49c.2-.36.4-.72.58-1.09l4.86-.79c.5-.08.91-.4 1.1-.87a1.44 1.44 0 00-.16-1.4l-2.87-3.99c.12-.4.25-.79.36-1.19l4.6-1.72a1.44 1.44 0 00.92-1.07c.1-.5-.07-1-.43-1.34l-3.6-3.36.11-1.23 4.2-2.6a1.44 1.44 0 000-2.45l-4.2-2.6a57 57 0 00-.12-1.22l3.6-3.36a1.44 1.44 0 00.44-1.33 1.44 1.44 0 00-.91-1.08l-4.6-1.72a53.66 53.66 0 00-.37-1.19l2.87-4a1.44 1.44 0 00-.94-2.26l-4.85-.8-.59-1.08 2.04-4.48a1.44 1.44 0 00-.1-1.4 1.44 1.44 0 00-1.26-.65l-4.93.18a38.9 38.9 0 00-.78-.95l1.13-4.8a1.44 1.44 0 00-1.73-1.74l-4.8 1.13a41.51 41.51 0 00-.95-.78l.17-4.93a1.44 1.44 0 00-2.04-1.36l-4.48 2.04a52.1 52.1 0 00-1.1-.59L70 4.93A1.45 1.45 0 0067.72 4l-3.99 2.87a43.82 43.82 0 00-1.19-.36L60.82 1.9a1.45 1.45 0 00-2.4-.48l-3.37 3.6a43.27 43.27 0 00-1.22-.11L51.23.7A1.45 1.45 0 0050 .03zM50 13a36.99 36.99 0 0136.99 36.99A36.99 36.99 0 0150 86.98a36.99 36.99 0 01-36.99-37A36.99 36.99 0 0150 13z"/>
    <path id="j" d="M36.1 6.87l12.16 11.81a2.46 2.46 0 001.74.72 2.46 2.46 0 001.67-.65L63.9 6.87z"/>
    <use width="100%" height="100%" href="#j" transform="rotate(72 50 50)"/>
    <use width="100%" height="100%" href="#j" transform="rotate(144 50 50)"/>
    <use width="100%" height="100%" href="#j" transform="rotate(216 50 50)"/>
    <use width="100%" height="100%" href="#j" transform="rotate(-72 50 50)"/>
   </g>
  </g>
 </g>
 <g stroke="#000">
  <g stroke-linecap="round" stroke-width="0" transform="translate(259.98 84.72) scale(.22674)">
   <g id="k" fill="none" stroke-width="2">
    <path d="M44 86l-8-14-12 40">
     <animate attributeName="d" dur="2s" repeatCount="indefinite" values="M44,86L36,72L24,112;M44,88L34,76L24,112;M44,86L36,72L24,112"/>
    </path>
    <path d="M44 86L31 72l-14 40">
     <animate attributeName="d" dur="2s" repeatCount="indefinite" values="M44,86L31,72L17,112;M44,88L29,76L17,112;M44,86L31,72L17,112"/>
    </path>
    <path d="M44 86L26 72l-16 40">
     <animate attributeName="d" dur="2s" repeatCount="indefinite" values="M44,86L26,72L10,112;M44,88L24,76L10,112;M44,86L26,72L10,112"/>
    </path>
   </g>
   <use width="100%" height="100%" transform="matrix(-1 0 0 1 100 0)" xlink:href="#k"/>
   <g>
    <animateTransform attributeName="transform" dur="2s" repeatCount="indefinite" type="translate" values="0 0;0 2;0 0"/>
    <path stroke-width="4" d="M50 25v66"/>
    <g stroke="none" transform="translate(0 86)">
     <path d="M28.35-48.5v-25L50-86l21.65 12.5v25L50-36"/>
     <rect width="22" height="10" x="39" y="-5" rx="5"/>
     <rect width="12" height="32" x="44" y="-32" rx="4"/>
    </g>
   </g>
  </g>
 </g>
 <path d="M350.82 38.64l5.78 10-2.66.02-1.54-2.69-1.55 2.67h-1.32l-.67-1.16 2.2-3.8-1.56-2.74zm2.09-4.12l-5.77 10-1.35-2.3 1.55-2.66-3.09-.01-.66-1.15.67-1.16 4.4.01 1.58-2.72zm.44 8h11.54l-1.3 2.3h-3.1l1.54 2.67-.66 1.14h-1.35l-2.19-3.81h-3.14zm6.72-4.39l-5.77-10 2.65-.02 1.54 2.68 1.55-2.67h1.32l.67 1.17-2.21 3.8 1.57 2.73zm-9.25.51l5.78 10-2.66.02-1.54-2.69-1.55 2.67h-1.32l-.67-1.16 2.2-3.8-1.56-2.74zm6.7-4.4h-11.54l1.3-2.32h3.1l-1.53-2.67.66-1.14h1.34l2.19 3.81h3.15zm.46 8l5.77-9.99 1.35 2.29-1.56 2.67h3.1l.65 1.15-.67 1.17-4.4-.02-1.58 2.73z"/>
 <line stroke="#000" x1="23" y1="86" x2="179" y2="86">
  <animate attributeName="opacity" dur="4s" repeatCount="indefinite" values="1;1;0"/>
  <animate attributeName="x1" dur="4s" repeatCount="indefinite" values="179;23;23"/>
  <animateTransform attributeName="transform" attributeType="XML" dur="4s" repeatCount="indefinite" type="scale" values="0,1;1,1;1,1"/>
 </line>
</svg>
